<?xml version="1.0" standalone="no"?>
<!DOCTYPE svg PUBLIC "-//W3C//DTD SVG 20010904//EN"
 "http://www.w3.org/TR/2001/REC-SVG-20010904/DTD/svg10.dtd">
<svg version="1.0" xmlns="http://www.w3.org/2000/svg"
 width="260.000000pt" height="260.000000pt" viewBox="0 0 260.000000 260.000000"
 preserveAspectRatio="xMidYMid meet">

<g transform="translate(0.000000,260.000000) scale(0.100000,-0.100000)"
fill="#000000" stroke="none">
<path d="M1360 1823 c-560 -106 -680 -112 -828 -43 -62 29 -63 29 -56 7 10
-36 63 -84 118 -108 43 -20 72 -24 190 -27 77 -2 183 1 235 8 105 13 316 47
344 56 11 3 17 0 17 -9 0 -22 -102 -111 -301 -263 -238 -182 -351 -277 -443
-375 -95 -101 -136 -169 -136 -226 l0 -42 38 17 c56 26 277 21 532 -12 428
-56 466 -59 665 -60 214 -1 277 9 367 55 46 24 37 38 -13 20 -72 -25 -235 -35
-361 -22 -123 12 -356 55 -497 91 -100 25 -320 66 -398 75 -35 4 -63 12 -63
17 0 22 189 197 320 298 209 161 314 255 382 340 71 88 127 185 114 197 -8 9
-186 14 -226 6z"/>
</g>
</svg>
